<svg xmlns="http://www.w3.org/2000/svg" width="16" height="16" viewBox="0 0 24 24" fill="currentColor">
  <path d="M12 .5a12 12 0 0 0-3.79 23.4c.6.1.82-.26.82-.58v-2.02c-3.34.73-4.04-1.6-4.04-1.6-.55-1.4-1.34-1.77-1.34-1.77-1.1-.75.08-.73.08-.73 1.22.09 1.86 1.25 1.86 1.25 1.08 1.86 2.83 1.33 3.52 1.02.11-.78.42-1.33.76-1.64-2.66-.3-5.46-1.33-5.46-5.9 0-1.3.47-2.36 1.24-3.19-.12-.3-.54-1.51.12-3.16 0 0 1.01-.32 3.3 1.22a11.4 11.4 0 0 1 6.02 0c2.28-1.54 3.29-1.22 3.29-1.22.66 1.65.24 2.86.12 3.16.77.83 1.24 1.9 1.24 3.19 0 4.58-2.8 5.6-5.47 5.9.43.37.81 1.1.81 2.22v3.3c0 .32.21.69.82.57A12 12 0 0 0 12 .5z"/>
</svg>
